<svg xmlns="http://www.w3.org/2000/svg" width="1100" height="620" viewBox="0 0 1100 620" role="img" aria-labelledby="title desc">
<title id="title">Auxetic structure experimental results</title>
<desc id="desc">Bar charts comparing Charpy specific energy absorption and compression maximum stress.</desc>
<rect width="1100" height="620" fill="#f8fafc"/>
<text x="550" y="48" text-anchor="middle" font-family="Arial, sans-serif" font-size="30" font-weight="700" fill="#0f172a">Experimental Performance Comparison</text>
<text x="275" y="95" text-anchor="middle" font-family="Arial, sans-serif" font-size="21" font-weight="700" fill="#0f172a">Charpy SEA (kJ/m²)</text>
<line x1="80" y1="500" x2="500" y2="500" stroke="#64748b" stroke-width="2"/>
<rect x="105" y="357" width="70" height="143" rx="6" fill="#94a3b8"/><text x="140" y="344" text-anchor="middle" font-family="Arial" font-size="16" fill="#0f172a">71.5</text><text x="140" y="528" text-anchor="middle" font-family="Arial" font-size="14" fill="#334155">Bulk</text>
<rect x="205" y="230" width="70" height="270" rx="6" fill="#38bdf8"/><text x="240" y="217" text-anchor="middle" font-family="Arial" font-size="16" fill="#0f172a">135.15</text><text x="240" y="528" text-anchor="middle" font-family="Arial" font-size="14" fill="#334155">Honeycomb</text>
<rect x="305" y="152" width="70" height="348" rx="6" fill="#0f766e"/><text x="340" y="139" text-anchor="middle" font-family="Arial" font-size="16" font-weight="700" fill="#0f172a">174.0</text><text x="340" y="528" text-anchor="middle" font-family="Arial" font-size="14" fill="#334155">Spiderweb</text>
<rect x="405" y="203" width="70" height="297" rx="6" fill="#14b8a6"/><text x="440" y="190" text-anchor="middle" font-family="Arial" font-size="16" fill="#0f172a">148.48</text><text x="440" y="528" text-anchor="middle" font-family="Arial" font-size="14" fill="#334155">Trabecular</text>
<text x="825" y="95" text-anchor="middle" font-family="Arial, sans-serif" font-size="21" font-weight="700" fill="#0f172a">Compression maximum stress (MPa)</text>
<line x1="610" y1="500" x2="1030" y2="500" stroke="#64748b" stroke-width="2"/>
<rect x="655" y="277" width="85" height="223" rx="6" fill="#0f766e"/><text x="697" y="264" text-anchor="middle" font-family="Arial" font-size="16" fill="#0f172a">8.94</text><text x="697" y="528" text-anchor="middle" font-family="Arial" font-size="14" fill="#334155">Spiderweb</text>
<rect x="785" y="327" width="85" height="173" rx="6" fill="#14b8a6"/><text x="827" y="314" text-anchor="middle" font-family="Arial" font-size="16" fill="#0f172a">6.92</text><text x="827" y="528" text-anchor="middle" font-family="Arial" font-size="14" fill="#334155">Trabecular</text>
<rect x="915" y="99" width="85" height="401" rx="6" fill="#f59e0b"/><text x="957" y="86" text-anchor="middle" font-family="Arial" font-size="16" font-weight="700" fill="#0f172a">16.04</text><text x="957" y="528" text-anchor="middle" font-family="Arial" font-size="14" fill="#334155">Hybrid</text>
<text x="550" y="582" text-anchor="middle" font-family="Arial, sans-serif" font-size="14" fill="#475569">Laboratory-scale PLA+ specimens • Charpy impact and quasi-static compression</text>
</svg>